<svg width="50" height="50" viewBox="0 0 50 50" fill="none" xmlns="http://www.w3.org/2000/svg">
<path d="M48.3333 40.8334H44.1667V36.6668C44.1667 35.7463 43.4205 35.0001 42.5 35.0001H38.3333V30.8334C38.3333 29.9129 37.5871 29.1668 36.6667 29.1668H33.3333V5.83342C33.3306 3.53337 31.4667 1.6695 29.1667 1.66675H8.33333C8.11457 1.67734 7.90629 1.76365 7.74417 1.91091L0.244167 9.41092C0.0944357 9.57146 0.00772774 9.78069 0 10.0001V40.8334C0.0027551 43.1335 1.86662 44.9973 4.16667 45.0001H13.3333V46.6668C13.3333 47.5872 14.0795 48.3334 15 48.3334H25C25.2934 48.3318 25.5811 48.2518 25.8333 48.1018C26.0855 48.2518 26.3732 48.3318 26.6667 48.3334H36.6667C36.9601 48.3318 37.2478 48.2518 37.5 48.1018C37.7522 48.2518 38.0399 48.3318 38.3333 48.3334H48.3333C49.2538 48.3334 50 47.5872 50 46.6668V42.5001C50 41.5796 49.2538 40.8334 48.3333 40.8334ZM36.6667 30.8334V35.0001H26.6667V30.8334H36.6667ZM7.5 4.51175V6.66675C7.5 8.04746 6.38071 9.16675 5 9.16675H2.845L7.5 4.51175ZM13.3333 42.5001V43.3334H4.16667C2.78595 43.3334 1.66667 42.2141 1.66667 40.8334V10.8334H5C7.30004 10.8307 9.16391 8.96679 9.16667 6.66675V3.33341H29.1667C30.5474 3.33341 31.6667 4.4527 31.6667 5.83342V29.1668H26.6667C25.7462 29.1668 25 29.9129 25 30.8334V35.0001H20.8333C19.9129 35.0001 19.1667 35.7463 19.1667 36.6668V40.8334H15C14.0795 40.8334 13.3333 41.5796 13.3333 42.5001ZM25 46.6668H15V42.5001H25V46.6668ZM20.8333 40.8334V36.6668H30.8333V40.8334H20.8333ZM36.6667 42.5001V46.6668H26.6667V42.5001H36.6667ZM32.5 40.8334V36.6668H42.5V40.8334H32.5ZM48.3333 42.5001V46.6668H38.3333V42.5001H48.3333Z" fill="#12223B"/>
<path d="M7.28304 19.3916C7.54838 19.7098 7.92271 19.9178 8.33304 19.975V27.5C8.33304 28.8807 9.45233 30 10.833 30H22.4997C23.8804 30 24.9997 28.8807 24.9997 27.5V19.975C25.41 19.9178 25.7844 19.7098 26.0497 19.3916L27.118 18.1016C27.4013 17.7594 27.5356 17.318 27.4912 16.8759C27.4467 16.4339 27.2271 16.0281 26.8814 15.7491L24.9997 14.2291V9.99996C24.9997 9.07949 24.2535 8.33329 23.333 8.33329H21.6664C20.7459 8.33329 19.9997 9.07949 19.9997 9.99996V10.1858L17.7239 8.34579C17.105 7.85218 16.227 7.85218 15.608 8.34579L6.45054 15.75C6.10612 16.0299 5.88755 16.4356 5.84328 16.8772C5.79901 17.3188 5.9327 17.7598 6.21471 18.1025L7.28304 19.3916ZM18.333 28.3333H14.9997V24.1666C14.9997 23.7064 15.3728 23.3333 15.833 23.3333H17.4997C17.9599 23.3333 18.333 23.7064 18.333 24.1666V28.3333ZM23.333 27.5C23.333 27.9602 22.9599 28.3333 22.4997 28.3333H19.9997V24.1666C19.9997 22.7859 18.8804 21.6666 17.4997 21.6666H15.833C14.4523 21.6666 13.333 22.7859 13.333 24.1666V28.3333H10.833C10.3728 28.3333 9.99971 27.9602 9.99971 27.5V19.3333L16.6664 14.0466L23.333 19.3341V27.5ZM21.6664 9.99996H23.333V12.8816L21.6664 11.5333V9.99996ZM16.6764 9.64163L25.833 17.0391L24.7655 18.3333C24.7602 18.3366 24.7534 18.3366 24.748 18.3333C24.7422 18.3275 24.7339 18.3258 24.728 18.32L17.1839 12.3333C16.8807 12.0931 16.4521 12.0931 16.1489 12.3333L8.56721 18.3333L7.49971 17.0458L16.6764 9.64163Z" fill="#FFDB5A"/>
<path fill-rule="evenodd" clip-rule="evenodd" d="M5.00033 34.1667H15.8337C16.2939 34.1667 16.667 33.7936 16.667 33.3333C16.667 32.8731 16.2939 32.5 15.8337 32.5H5.00033C4.54009 32.5 4.16699 32.8731 4.16699 33.3333C4.16699 33.7936 4.54009 34.1667 5.00033 34.1667Z" fill="#FFDB5A"/>
<path fill-rule="evenodd" clip-rule="evenodd" d="M16.667 36.6668C16.667 36.2066 16.2939 35.8335 15.8337 35.8335H5.00033C4.54009 35.8335 4.16699 36.2066 4.16699 36.6668C4.16699 37.1271 4.54009 37.5002 5.00033 37.5002H15.8337C16.2939 37.5002 16.667 37.1271 16.667 36.6668Z" fill="#FFDB5A"/>
</svg>
