<svg width="50" height="50" viewBox="0 0 50 50" fill="none" xmlns="http://www.w3.org/2000/svg">
<g clip-path="url(#clip0_649_634)">
<path d="M25.2151 17.4166L23.3335 15.8958V11.6666C23.3335 10.7461 22.5873 9.99989 21.6668 9.99989H20.0001C19.0796 9.99989 18.3334 10.7461 18.3334 11.6666V11.8533L16.0576 10.0133C15.439 9.51869 14.5603 9.51869 13.9417 10.0133L4.78515 17.4166C4.43944 17.6957 4.21979 18.1014 4.17534 18.5434C4.13089 18.9854 4.26523 19.4268 4.54844 19.7691L5.61681 21.0591C5.88214 21.3773 6.25647 21.5852 6.66681 21.6424V29.1666C6.66681 30.5472 7.78611 31.6666 9.1668 31.6666H20.8335C22.2142 31.6666 23.3335 30.5472 23.3335 29.1666V21.6424C23.7438 21.5852 24.1181 21.3772 24.3835 21.0591L25.4518 19.7691C25.735 19.4268 25.8695 18.9854 25.8249 18.5434C25.7804 18.1014 25.5608 17.6957 25.2151 17.4166ZM20.0001 11.6667H21.6668V14.5483L20.0001 13.2008V11.6667ZM13.3335 29.9999V25.8333C13.3335 25.3731 13.7066 25 14.1668 25H15.8335C16.2937 25 16.6668 25.3731 16.6668 25.8333V29.9999H13.3335ZM20.8335 29.9999H18.3335V25.8333C18.3335 24.4526 17.2142 23.3333 15.8335 23.3333H14.1668C12.7861 23.3333 11.6668 24.4526 11.6668 25.8333V29.9999H9.1668C8.7066 29.9999 8.3335 29.6268 8.3335 29.1666V21L15.0002 15.7125L21.6669 21V29.1666C21.6668 29.6268 21.2937 29.9999 20.8335 29.9999ZM23.0993 20C23.0936 20.0029 23.0868 20.0029 23.0809 20C23.0759 19.995 23.0685 19.9925 23.0626 19.9875L15.5176 14C15.2143 13.7598 14.7857 13.7598 14.4826 14L6.90089 20L5.83342 18.7133L15.0101 11.3091L24.1668 18.7065L23.0993 20Z" fill="#FFDB5A"/>
<path d="M3.33338 40.8333H15.5417L12.7625 46.3858C12.3768 47.1607 12.4193 48.08 12.8749 48.8159C13.3305 49.5519 14.1344 49.9998 15 49.9999C15.9496 50.005 16.8186 49.4671 17.2375 48.615L21.1317 40.8333H22.5V47.5C22.5 48.8807 23.6193 50 25 50C26.3807 50 27.5 48.8807 27.5 47.5V40.8333H28.8683L32.7608 48.61C33.1785 49.4647 34.0486 50.0048 34.9999 49.9999C35.8657 49.9999 36.6699 49.5519 37.1256 48.8157C37.5813 48.0795 37.6236 47.1599 37.2374 46.3849L34.4582 40.8332H46.6665C48.5075 40.8332 49.9998 39.3408 49.9998 37.4999V36.6666C49.998 36.0739 49.6805 35.527 49.1665 35.2316V7.49999C49.1665 6.11929 48.0472 4.99999 46.6665 4.99999H27.5V2.5C27.5 1.1193 26.3807 0 25 0C23.6193 0 22.5 1.1193 22.5 2.5V4.99999H3.33338C1.95269 4.99999 0.833387 6.11929 0.833387 7.49999V35.2316C0.319379 35.527 0.0018044 36.0739 0 36.6666V37.4999C0 39.3409 1.4924 40.8333 3.33338 40.8333ZM15.7441 47.8733C15.532 48.2722 15.0454 48.4364 14.635 48.2474C14.4363 48.1502 14.2844 47.9779 14.2128 47.7686C14.1412 47.5593 14.1558 47.3301 14.2534 47.1316L17.4067 40.8332H19.2675L15.7441 47.8733ZM25.8333 47.4999C25.8333 47.9601 25.4602 48.3332 25 48.3332C24.5398 48.3332 24.1667 47.9601 24.1667 47.4999V40.8332H25.8334L25.8333 47.4999ZM35.75 47.1308C35.9534 47.5436 35.7836 48.0431 35.3708 48.2466C34.9581 48.4399 34.4663 48.2729 34.2567 47.8683L30.7325 40.8332H32.5934L35.75 47.1308ZM48.3333 37.4999C48.3333 38.4204 47.5871 39.1666 46.6666 39.1666H3.33338C2.41289 39.1666 1.66669 38.4204 1.66669 37.4999V36.6666H48.3333V37.4999ZM41.6666 34.9999H31.6666V32.4999C31.6666 32.0397 32.0397 31.6666 32.4999 31.6666H40.8332C41.2934 31.6666 41.6665 32.0397 41.6665 32.4999V34.9999H41.6666ZM24.1667 2.5C24.1667 2.03979 24.5398 1.66669 25 1.66669C25.4602 1.66669 25.8333 2.03979 25.8333 2.5V4.99999H24.1667V2.5ZM2.5 7.49999C2.5 7.03978 2.8731 6.66668 3.3333 6.66668H46.6666C47.1268 6.66668 47.4999 7.03978 47.4999 7.49999V34.9999H43.3332V32.4999C43.3332 31.1193 42.2139 30 40.8332 30H32.4999C31.1193 30 30 31.1193 30 32.4999V34.9999H2.5V7.49999Z" fill="#12223B"/>
<path d="M36.6664 27.5C39.0907 27.5012 41.4161 26.5389 43.1306 24.8249C43.1356 24.8199 43.1423 24.8191 43.1473 24.8141C43.1523 24.8091 43.1539 24.8025 43.1589 24.7975C46.7244 21.2255 46.7244 15.4411 43.1589 11.8692C43.1539 11.8642 43.1523 11.8575 43.1473 11.8525C43.1423 11.8475 43.1356 11.8467 43.1306 11.8417C40.193 8.91301 35.6548 8.32207 32.0651 10.4007C28.4754 12.4794 26.729 16.7097 27.8069 20.7153C28.8848 24.7209 32.5184 27.5035 36.6664 27.5ZM29.2156 19.1667H36.3214L41.3422 24.1875C39.2107 25.8961 36.318 26.3084 33.7941 25.2634C31.2701 24.2183 29.5155 21.8819 29.2156 19.1667ZM42.5206 23.0091L37.8447 18.3333L42.5206 13.6574C44.7151 16.3885 44.7151 20.2781 42.5206 23.0091ZM36.6664 10.8333C38.3672 10.8326 40.017 11.4133 41.3423 12.4792L36.3215 17.5H29.2157C29.6436 13.7069 32.8493 10.8385 36.6664 10.8333Z" fill="#FFDB5A"/>
</g>
<defs>
<clipPath id="clip0_649_634">
<rect width="50" height="50" fill="white"/>
</clipPath>
</defs>
</svg>
