<svg width="60" height="60" viewBox="0 0 60 60" fill="none" xmlns="http://www.w3.org/2000/svg">
<g clip-path="url(#clip0_363_747)">
<path d="M33 7C33 5.34316 31.6568 4 30 4C28.3432 4 27 5.34316 27 7C27 8.65684 28.3432 10 30 10C31.6568 10 33 8.65693 33 7ZM29 7C29 6.44775 29.4478 6.00003 30 6.00003C30.5522 6.00003 31 6.44775 31 7C31 7.55225 30.5522 7.99997 30 7.99997C29.4478 7.99997 29 7.55234 29 7Z" fill="#FFDB5A"/>
<path d="M57 42C58.6568 42 60 40.6568 60 39C60 37.3432 58.6568 36 57 36H50.3L32.424 24.382C33.6588 23.7061 34.5466 22.5354 34.864 21.164C35.4049 18.8824 34.2934 16.5304 32.187 15.5C31.5778 15.2229 31.1468 14.6603 31.0381 13.9999H32.063C32.9519 13.9995 33.7946 13.6042 34.363 12.9209L38.3 8.19993C38.7518 7.66048 38.9995 6.9795 39 6.27598V3C39 1.34316 37.6568 0 36 0H24C22.3432 0 21 1.34316 21 3V6.27598C21.0009 6.9795 21.2486 7.66038 21.7 8.19993L25.637 12.9229C26.205 13.6067 27.0479 14.0025 27.937 14.0029H29.0179C29.1272 15.4371 30.0042 16.6997 31.31 17.3029C32.5779 17.9288 33.2441 19.3487 32.915 20.7239C32.5554 22.2025 31.1458 23.1777 29.6354 22.9928C28.1251 22.8079 26.9923 21.5215 27 19.9998C27 19.4476 26.5523 18.9999 26 18.9999C25.4478 18.9999 25.0001 19.4476 25.0001 19.9998C24.9961 21.524 25.6907 22.966 26.885 23.9128C27.1047 24.0875 27.3389 24.243 27.585 24.3778L9.69998 36H3C1.34316 36 0 37.3432 0 39C0 40.6568 1.34316 42 3 42V54C1.34316 54 0 55.3432 0 57C0 58.6568 1.34316 60 3 60H57C58.6568 60 60 58.6568 60 57C60 55.3432 58.6568 54 57 54V42ZM27.169 11.64L23.231 6.91601C23.0816 6.7362 22.9998 6.50983 23 6.27598V3C23 2.44775 23.4478 2.00003 24 2.00003H36C36.5522 2.00003 37 2.44775 37 3V6.27598C37.0002 6.50973 36.9184 6.7362 36.769 6.91601L32.832 11.6411C32.6419 11.8687 32.3606 12.0002 32.064 12.0001H27.937C27.6402 11.9999 27.3589 11.868 27.169 11.64ZM30 25.192L46.626 36H13.374L30 25.192ZM2.00003 39C2.00003 38.4478 2.44775 38 3 38H57C57.5522 38 58 38.4478 58 39C58 39.5522 57.5522 40 57 40H3C2.44775 40.0001 2.00003 39.5523 2.00003 39ZM58.0001 57C58.0001 57.5522 57.5523 58 57.0001 58H3C2.44775 58 2.00003 57.5522 2.00003 57C2.00003 56.4478 2.44775 56 3 56H57C57.5523 56 58.0001 56.4478 58.0001 57ZM55.0001 54H5.00003V42H55.0001V54Z" fill="#12223B"/>
<path d="M12 51.9999C14.2091 51.9999 15.9999 50.209 15.9999 48C15.9999 45.7909 14.209 44 12 44C9.79089 44 8 45.7909 8 48C8 50.209 9.79079 51.9999 12 51.9999ZM12 45.9999C13.1046 45.9999 14 46.8954 14 48C14 49.1046 13.1046 50 12 50C10.8954 50 9.99993 49.1046 9.99993 48C9.99993 46.8953 10.8954 45.9999 12 45.9999Z" fill="#FFDB5A"/>
<path d="M24 51.9999C26.2091 51.9999 27.9999 50.209 27.9999 48C27.9999 45.7909 26.209 44 24 44C21.7909 44 20 45.7909 20 48C20 50.209 21.7909 51.9999 24 51.9999ZM24 45.9999C25.1046 45.9999 26 46.8954 26 48C26 49.1046 25.1046 50 24 50C22.8954 50 21.9999 49.1046 21.9999 48C21.9999 46.8953 22.8954 45.9999 24 45.9999Z" fill="#FFDB5A"/>
<path d="M36 51.9999C38.2091 51.9999 39.9999 50.209 39.9999 48C39.9999 45.7909 38.209 44 36 44C33.7909 44 32 45.7909 32 48C32 50.209 33.7909 51.9999 36 51.9999ZM36 45.9999C37.1046 45.9999 38 46.8954 38 48C38 49.1046 37.1046 50 36 50C34.8954 50 33.9999 49.1046 33.9999 48C33.9999 46.8953 34.8954 45.9999 36 45.9999Z" fill="#FFDB5A"/>
<path d="M48 51.9999C50.2091 51.9999 51.9999 50.209 51.9999 48C51.9999 45.7909 50.2091 44 48 44C45.7909 44 44 45.7909 44 48C44 50.209 45.7909 51.9999 48 51.9999ZM48 45.9999C49.1046 45.9999 50 46.8954 50 48C50 49.1046 49.1046 50 48 50C46.8954 50 45.9999 49.1046 45.9999 48C46 46.8953 46.8954 45.9999 48 45.9999Z" fill="#FFDB5A"/>
</g>
<defs>
<clipPath id="clip0_363_747">
<rect width="60" height="60" fill="white"/>
</clipPath>
</defs>
</svg>
